<?xml version="1.0" encoding="UTF-8"?>
<!DOCTYPE svg PUBLIC "-//W3C//DTD SVG 1.1//EN" "http://www.w3.org/Graphics/SVG/1.1/DTD/svg11.dtd">
<svg xmlns="http://www.w3.org/2000/svg" version="1.1" width="500px" height="500px" style="shape-rendering:geometricPrecision; text-rendering:geometricPrecision; image-rendering:optimizeQuality; fill-rule:evenodd; clip-rule:evenodd" xmlns:xlink="http://www.w3.org/1999/xlink">
<g><path style="opacity:1" fill="#cebba7" d="M -0.5,-0.5 C 166.167,-0.5 332.833,-0.5 499.5,-0.5C 499.5,166.167 499.5,332.833 499.5,499.5C 332.833,499.5 166.167,499.5 -0.5,499.5C -0.5,332.833 -0.5,166.167 -0.5,-0.5 Z"/></g>
<g><path style="opacity:1" fill="#c9b6a2" d="M 165.5,130.5 C 173.366,130.441 181.033,131.608 188.5,134C 191.667,135.833 194.167,138.333 196,141.5C 198.294,148.008 199.96,154.674 201,161.5C 204.122,187.901 207.789,214.234 212,240.5C 212.333,217.5 212.667,194.5 213,171.5C 213.956,160.547 219.79,154.047 230.5,152C 243.349,150.549 255.516,152.715 267,158.5C 277.498,155.375 288.165,153.042 299,151.5C 303.803,152.041 308.469,153.041 313,154.5C 313.316,142.642 319.15,135.476 330.5,133C 343.64,132.195 356.64,133.195 369.5,136C 377.55,139.261 384.384,144.094 390,150.5C 392.994,155.816 394.994,161.482 396,167.5C 397.567,188.136 397.901,208.803 397,229.5C 397.371,243.43 391.871,254.263 380.5,262C 374.028,265.065 367.528,267.898 361,270.5C 360.333,282.5 360.333,294.5 361,306.5C 361.509,311.23 362.342,315.897 363.5,320.5C 364.672,320.081 365.672,319.415 366.5,318.5C 375.457,294.921 386.29,272.254 399,250.5C 403.536,243.156 410.036,240.656 418.5,243C 422.99,244.274 427.323,245.941 431.5,248C 433.378,249.543 434.878,251.376 436,253.5C 437.504,257.807 437.838,262.141 437,266.5C 442.688,260.375 449.521,258.875 457.5,262C 463.952,263.623 467.285,267.79 467.5,274.5C 466.94,279.076 465.606,283.41 463.5,287.5C 463.709,288.086 464.043,288.586 464.5,289C 477.334,288.494 481.834,294.328 478,306.5C 476.403,309.219 474.237,311.386 471.5,313C 464.895,317.136 457.895,320.469 450.5,323C 445.421,330.992 441.254,339.492 438,348.5C 436.87,356.035 434.37,363.035 430.5,369.5C 421.3,376.211 414.8,374.211 411,363.5C 410.294,352.419 410.627,341.419 412,330.5C 409.833,334 407,336.833 403.5,339C 399.12,340.11 394.787,340.777 390.5,341C 387.224,348.946 383.724,356.78 380,364.5C 378.411,376.295 373.578,386.461 365.5,395C 358.116,399.191 352.283,397.691 348,390.5C 347.55,379.744 349.05,369.244 352.5,359C 351.083,356.362 348.916,354.528 346,353.5C 335.69,361.572 324.19,367.406 311.5,371C 301.83,372.168 293.496,369.334 286.5,362.5C 278.788,366.846 270.455,369.18 261.5,369.5C 248.445,368.531 236.278,364.865 225,358.5C 219.466,348.207 221.966,340.374 232.5,335C 225.544,333.361 220.211,329.528 216.5,323.5C 213.086,325.957 209.586,328.291 206,330.5C 207.3,334.47 206.466,337.97 203.5,341C 196.799,345.822 190.299,345.656 184,340.5C 182.927,336.916 182.26,333.25 182,329.5C 178.199,328.485 174.366,328.651 170.5,330C 156.648,331.233 142.981,330.233 129.5,327C 126.421,325.752 123.754,323.919 121.5,321.5C 116.987,324.756 111.987,326.922 106.5,328C 95.9248,328.917 85.4248,328.417 75,326.5C 59.7254,332.031 50.0588,327.031 46,311.5C 45.409,302.773 45.909,294.107 47.5,285.5C 47.0025,279.003 45.6692,272.67 43.5,266.5C 46.6742,257.729 47.3409,248.729 45.5,239.5C 45.7343,234.661 46.7343,229.994 48.5,225.5C 47.2713,224.719 45.938,224.219 44.5,224C 46.1012,223.727 47.6012,223.227 49,222.5C 50.4217,214.895 50.5884,207.229 49.5,199.5C 48.5949,182.19 52.0949,165.856 60,150.5C 67.6909,139.738 78.1909,134.404 91.5,134.5C 118.922,134.419 133.755,148.086 136,175.5C 138.037,192.469 130.704,202.136 114,204.5C 109.832,204.03 105.832,203.03 102,201.5C 101.333,202.167 100.667,202.833 100,203.5C 99.3333,220.5 99.3333,237.5 100,254.5C 100.674,255.578 101.674,256.245 103,256.5C 110.672,253.575 118.172,253.908 125.5,257.5C 131.622,219.386 138.456,181.386 146,143.5C 150.14,135.52 156.64,131.187 165.5,130.5 Z"/></g>
<g><path style="opacity:1" fill="#29351f" d="M 211.5,306.5 C 203.896,307.288 196.229,307.121 188.5,306C 187.541,304.293 186.875,302.459 186.5,300.5C 190.86,294.305 190.36,288.638 185,283.5C 184.661,273.323 179.495,268.656 169.5,269.5C 169.172,281.345 169.505,293.012 170.5,304.5C 170.837,307.833 172.504,308.833 175.5,307.5C 176.298,307.957 176.631,308.624 176.5,309.5C 171.489,309.666 166.489,309.499 161.5,309C 162.056,308.617 162.389,308.117 162.5,307.5C 162.337,305.143 162.503,302.81 163,300.5C 162.408,304.898 164.241,306.898 168.5,306.5C 168.249,294.537 168.249,282.537 168.5,270.5C 159.234,270.443 155.234,275.11 156.5,284.5C 155.914,284.709 155.414,285.043 155,285.5C 154.661,292.565 153.828,299.565 152.5,306.5C 151.692,306.808 151.025,307.308 150.5,308C 151.793,308.49 153.127,308.657 154.5,308.5C 154.338,306.473 154.505,304.473 155,302.5C 155.483,303.448 155.649,304.448 155.5,305.5C 157.554,305.365 159.221,306.032 160.5,307.5C 158.085,308.814 155.252,309.481 152,309.5C 148.749,309.458 145.583,309.125 142.5,308.5C 138.486,308.666 134.486,308.499 130.5,308C 129.944,307.617 129.611,307.117 129.5,306.5C 129.132,300.785 130.298,295.452 133,290.5C 133.991,291.43 134.491,292.596 134.5,294C 133.497,296.468 132.997,298.968 133,301.5C 136.723,299.443 139.39,296.443 141,292.5C 141.638,289.07 140.138,287.737 136.5,288.5C 136.688,286.897 136.188,285.563 135,284.5C 133.997,286.935 133.497,286.602 133.5,283.5C 133.993,274.533 135.827,265.866 139,257.5C 139.333,251.167 139.667,244.833 140,238.5C 142.267,220.678 145.1,203.012 148.5,185.5C 152.081,169.364 155.248,153.031 158,136.5C 166.421,135.351 174.921,135.184 183.5,136C 184.416,136.374 185.25,136.874 186,137.5C 186.048,145.074 187.382,152.407 190,159.5C 190.333,167.833 190.667,176.167 191,184.5C 192.399,187.363 193.399,190.363 194,193.5C 194.65,200.749 195.816,207.916 197.5,215C 197.385,218.669 197.051,222.335 196.5,226C 197.905,227.977 198.905,230.143 199.5,232.5C 198.351,235.522 198.351,238.522 199.5,241.5C 200.251,240.624 200.751,239.624 201,238.5C 202.497,249.486 203.83,260.486 205,271.5C 207.943,279.548 209.276,287.881 209,296.5C 210.557,299.666 211.39,303 211.5,306.5 Z"/></g>
<g><path style="opacity:1" fill="#29351f" d="M 377.5,158.5 C 378.376,158.631 379.043,158.298 379.5,157.5C 380.18,155.111 381.014,152.778 382,150.5C 383.899,154.621 384.732,158.954 384.5,163.5C 384.667,185.836 384.5,208.169 384,230.5C 381.193,238.641 375.693,244.141 367.5,247C 361.833,247.333 356.167,247.667 350.5,248C 350,248.5 349.5,249 349,249.5C 347.835,258.463 347.335,267.463 347.5,276.5C 347.821,281.695 347.487,286.695 346.5,291.5C 341.023,290.436 335.689,288.769 330.5,286.5C 328.927,286.752 327.594,287.418 326.5,288.5C 327.641,282.961 327.308,277.461 325.5,272C 326.623,264.844 326.623,257.677 325.5,250.5C 325.948,244.476 326.615,238.476 327.5,232.5C 326.979,211.642 325.979,190.808 324.5,170C 324.581,167.375 325.248,165.041 326.5,163C 325.224,160.276 324.558,157.276 324.5,154C 324.61,148.795 325.11,143.628 326,138.5C 328.963,137.04 332.13,136.374 335.5,136.5C 345.781,137.91 356.114,138.743 366.5,139C 374.657,140.938 374.99,142.438 367.5,143.5C 367.649,142.448 367.483,141.448 367,140.5C 364.806,142.389 364.306,144.556 365.5,147C 367.841,146.443 370.174,146.61 372.5,147.5C 368.265,150.567 364.932,154.4 362.5,159C 365.318,162.129 368.318,162.295 371.5,159.5C 369.997,158.948 368.331,158.948 366.5,159.5C 366.343,158.127 366.51,156.793 367,155.5C 369.333,153.5 371.667,151.5 374,149.5C 374.494,147.866 374.66,146.199 374.5,144.5C 376.144,144.286 377.644,144.62 379,145.5C 379.729,149.997 379.229,154.33 377.5,158.5 Z"/></g>
<g><path style="opacity:1" fill="#2a3620" d="M 125.5,272.5 C 125.58,284.367 121.913,294.867 114.5,304C 108.421,307.927 101.754,309.427 94.5,308.5C 87.1341,309.789 80.8008,307.956 75.5,303C 71.7887,302.175 68.122,302.341 64.5,303.5C 65.325,304.386 66.325,304.719 67.5,304.5C 67.3502,308.98 65.0168,310.98 60.5,310.5C 59.2285,307.514 58.8952,304.514 59.5,301.5C 57.784,301.003 56.1173,300.669 54.5,300.5C 62.1494,298.94 62.4827,297.94 55.5,297.5C 55.8333,293.833 57.8333,291.833 61.5,291.5C 60.8866,281.512 60.5533,271.512 60.5,261.5C 54.1468,261.547 53.9801,260.881 60,259.5C 60.4993,254.511 60.6659,249.511 60.5,244.5C 62.385,242.205 62.885,239.538 62,236.5C 61.3918,238.066 60.5585,239.4 59.5,240.5C 59.5,239.167 59.5,237.833 59.5,236.5C 52.8333,236.167 52.8333,235.833 59.5,235.5C 59.3347,231.818 59.5014,228.152 60,224.5C 60.414,224.043 60.914,223.709 61.5,223.5C 62.333,204.842 62.833,186.176 63,167.5C 65.7301,161.309 68.0634,154.976 70,148.5C 80.4264,137.104 92.9264,134.271 107.5,140C 110.736,142.868 114.236,145.368 118,147.5C 120.248,153.686 122.248,160.019 124,166.5C 127.146,182.862 120.979,188.195 105.5,182.5C 103.845,177.684 103.012,172.684 103,167.5C 97.3528,159.334 92.3528,159.668 88,168.5C 86.8661,179.598 86.3661,190.765 86.5,202C 87.2961,227.514 87.4627,253.014 87,278.5C 90.3924,284.467 95.2258,285.967 101.5,283C 102.46,281.581 103.293,280.081 104,278.5C 104.17,272.472 104.67,266.472 105.5,260.5C 118.135,254.812 124.802,258.812 125.5,272.5 Z"/></g>
<g><path style="opacity:1" fill="#b8a895" d="M 343.5,145.5 C 345.176,146.183 345.843,147.517 345.5,149.5C 347.167,149.5 348.833,149.5 350.5,149.5C 349.868,154.809 347.201,158.809 342.5,161.5C 342.167,161.167 341.833,160.833 341.5,160.5C 344.032,156.894 344.032,153.394 341.5,150C 343.037,148.89 343.703,147.39 343.5,145.5 Z"/></g>
<g><path style="opacity:1" fill="#28351f" d="M 249.5,193.5 C 249.484,205.628 249.484,217.962 249.5,230.5C 248.404,224.082 246.404,218.082 243.5,212.5C 242.194,213.912 241.36,215.579 241,217.5C 241.292,238.823 241.792,260.157 242.5,281.5C 235.389,291.48 234.056,302.147 238.5,313.5C 237.866,314.947 236.699,315.613 235,315.5C 229.585,315.056 226.585,312.056 226,306.5C 225.628,257.146 225.295,207.813 225,158.5C 226.419,157.54 227.919,156.707 229.5,156C 237.234,156.033 244.901,156.866 252.5,158.5C 253.69,166.928 255.357,175.261 257.5,183.5C 255.922,184.072 254.422,184.406 253,184.5C 253.522,182.951 253.355,181.451 252.5,180C 252.905,179.055 253.572,178.388 254.5,178C 254.6,171.756 251.934,170.09 246.5,173C 245.978,173.561 245.645,174.228 245.5,175C 246.34,176.767 247.673,178.101 249.5,179C 243.372,179.634 237.538,179.468 232,178.5C 231.308,179.025 230.808,179.692 230.5,180.5C 236.135,180.023 241.802,180.523 247.5,182C 248.894,182.956 249.561,184.289 249.5,186C 248.849,188.363 248.849,190.863 249.5,193.5 Z"/></g>
<g><path style="opacity:1" fill="#29351f" d="M 313.5,296.5 C 308.099,301.895 303.099,307.562 298.5,313.5C 295.539,312.607 293.706,310.607 293,307.5C 293.526,276.843 293.526,246.177 293,215.5C 291.989,214.663 290.822,214.33 289.5,214.5C 285.777,231.284 283.443,248.284 282.5,265.5C 272.99,264.252 263.99,265.919 255.5,270.5C 255.157,262.465 254.49,254.465 253.5,246.5C 258.833,246.167 258.833,245.833 253.5,245.5C 253.158,238.323 252.491,231.323 251.5,224.5C 252.343,222.827 253.676,221.66 255.5,221C 254.552,220.517 253.552,220.351 252.5,220.5C 253.093,213.3 253.259,205.967 253,198.5C 252.667,199.5 252.333,200.5 252,201.5C 251.536,200.906 251.369,200.239 251.5,199.5C 251.5,196.5 251.5,193.5 251.5,190.5C 254.049,190.559 256.049,189.559 257.5,187.5C 260.22,201.265 263.386,214.932 267,228.5C 269.302,232.461 271.135,232.127 272.5,227.5C 274.196,227.315 275.529,226.481 276.5,225C 274.875,221.001 274.208,216.501 274.5,211.5C 276.724,200.324 279.057,189.157 281.5,178C 280.503,173.862 280.336,169.696 281,165.5C 281.333,168.167 281.667,170.833 282,173.5C 283.167,170 284.333,166.5 285.5,163C 284.576,161.189 283.743,161.355 283,163.5C 280.279,161.686 277.446,161.019 274.5,161.5C 273.702,161.957 273.369,162.624 273.5,163.5C 273.167,163.5 272.833,163.5 272.5,163.5C 271.77,161.955 270.437,161.122 268.5,161C 274.5,160.667 280.5,160.333 286.5,160C 287.398,157.6 289.064,156.1 291.5,155.5C 297.172,156.541 302.838,156.708 308.5,156C 310.041,157.579 311.208,159.413 312,161.5C 312.534,206.5 313.034,251.5 313.5,296.5 Z"/></g>
<g><path style="opacity:1" fill="#bdac99" d="M 362.5,222.5 C 364.939,208.556 364.773,194.556 362,180.5C 361.399,177.363 360.399,174.363 359,171.5C 357,168.833 355,168.833 353,171.5C 352.027,173.392 351.36,175.392 351,177.5C 350.333,192.5 350.333,207.5 351,222.5C 352.45,226.44 355.284,228.107 359.5,227.5C 356.635,228.783 353.635,228.783 350.5,227.5C 348.633,219.467 347.633,211.3 347.5,203C 347.785,190.191 347.952,177.358 348,164.5C 348.837,162.156 350.171,160.156 352,158.5C 351.696,153.31 353.196,148.81 356.5,145C 357.833,144.333 359.167,144.333 360.5,145C 356.749,145.582 355.082,147.749 355.5,151.5C 360.054,151.382 362.054,153.382 361.5,157.5C 360.738,156.372 360.071,155.205 359.5,154C 358.668,153.312 358.002,153.479 357.5,154.5C 358.637,159.312 360.804,163.645 364,167.5C 367.148,182.691 368.148,198.024 367,213.5C 365.997,216.84 364.497,219.84 362.5,222.5 Z"/></g>
<g><path style="opacity:1" fill="#b3a491" d="M 377.5,158.5 C 378.879,161.047 380.546,161.047 382.5,158.5C 383.386,159.325 383.719,160.325 383.5,161.5C 380.102,161.82 376.768,161.487 373.5,160.5C 374.32,158.889 375.654,158.222 377.5,158.5 Z"/></g>
<g><path style="opacity:1" fill="#c9b7a3" d="M 362.5,222.5 C 362.25,224.674 361.25,226.341 359.5,227.5C 355.284,228.107 352.45,226.44 351,222.5C 350.333,207.5 350.333,192.5 351,177.5C 351.36,175.392 352.027,173.392 353,171.5C 355,168.833 357,168.833 359,171.5C 360.399,174.363 361.399,177.363 362,180.5C 364.773,194.556 364.939,208.556 362.5,222.5 Z"/></g>
<g><path style="opacity:1" fill="#c1af9c" d="M 384.5,163.5 C 385.429,166.675 386.262,170.009 387,173.5C 387.667,194.167 387.667,214.833 387,235.5C 385.261,244.908 380.094,251.742 371.5,256C 366.116,257.542 360.783,259.209 355.5,261C 353.959,262.579 352.792,264.413 352,266.5C 350.647,273.792 350.314,281.125 351,288.5C 352.672,294.182 354.339,299.849 356,305.5C 356.261,312.272 356.428,318.938 356.5,325.5C 354.834,326.666 353.167,326.666 351.5,325.5C 356.279,313.841 355.279,302.841 348.5,292.5C 348.821,286.974 348.488,281.64 347.5,276.5C 347.335,267.463 347.835,258.463 349,249.5C 349.5,249 350,248.5 350.5,248C 356.167,247.667 361.833,247.333 367.5,247C 375.693,244.141 381.193,238.641 384,230.5C 384.5,208.169 384.667,185.836 384.5,163.5 Z"/></g>
<g><path style="opacity:1" fill="#323d27" d="M 266.5,173.5 C 268.337,173.639 268.67,174.306 267.5,175.5C 266.702,175.043 266.369,174.376 266.5,173.5 Z"/></g>
<g><path style="opacity:1" fill="#656651" d="M 272.5,163.5 C 272.833,163.5 273.167,163.5 273.5,163.5C 274.271,170.184 274.604,176.851 274.5,183.5C 274,184.5 273.5,185.5 273,186.5C 272.5,178.841 272.334,171.174 272.5,163.5 Z"/></g>
<g><path style="opacity:1" fill="#9b917d" d="M 249.5,193.5 C 250.167,195.5 250.833,197.5 251.5,199.5C 251.369,200.239 251.536,200.906 252,201.5C 252.333,200.5 252.667,199.5 253,198.5C 253.259,205.967 253.093,213.3 252.5,220.5C 253.552,220.351 254.552,220.517 255.5,221C 253.676,221.66 252.343,222.827 251.5,224.5C 251.665,228.182 251.499,231.848 251,235.5C 250.648,233.753 250.148,232.086 249.5,230.5C 249.484,217.962 249.484,205.628 249.5,193.5 Z"/></g>
<g><path style="opacity:1" fill="#bcac99" d="M 169.5,206.5 C 170.822,206.33 171.989,206.663 173,207.5C 175.006,219.371 177.173,231.204 179.5,243C 179.507,244.812 178.84,246.312 177.5,247.5C 172.869,248.662 168.202,248.828 163.5,248C 162.422,247.326 161.755,246.326 161.5,245C 163.824,235.99 165.324,226.823 166,217.5C 167.274,213.846 168.44,210.18 169.5,206.5 Z"/></g>
<g><path style="opacity:1" fill="#545843" d="M 274.5,211.5 C 274.208,216.501 274.875,221.001 276.5,225C 275.529,226.481 274.196,227.315 272.5,227.5C 272.875,221.991 273.542,216.658 274.5,211.5 Z"/></g>
<g><path style="opacity:1" fill="#b0a18f" d="M 76.5,223.5 C 77.5,223.5 78.5,223.5 79.5,223.5C 78.7542,227.31 77.7542,227.31 76.5,223.5 Z"/></g>
<g><path style="opacity:1" fill="#bfad9a" d="M 249.5,230.5 C 250.148,232.086 250.648,233.753 251,235.5C 251.499,231.848 251.665,228.182 251.5,224.5C 252.491,231.323 253.158,238.323 253.5,245.5C 258.833,245.833 258.833,246.167 253.5,246.5C 254.49,254.465 255.157,262.465 255.5,270.5C 250.53,273.475 246.196,277.142 242.5,281.5C 241.792,260.157 241.292,238.823 241,217.5C 241.36,215.579 242.194,213.912 243.5,212.5C 246.404,218.082 248.404,224.082 249.5,230.5 Z"/></g>
<g><path style="opacity:1" fill="#a69986" d="M 73.5,223.5 C 74.6491,223.791 75.3158,224.624 75.5,226C 73.8805,229.311 74.2139,232.311 76.5,235C 75.6667,235.833 74.8333,236.667 74,237.5C 73.5008,232.845 73.3342,228.179 73.5,223.5 Z"/></g>
<g><path style="opacity:1" fill="#706f5a" d="M 60.5,244.5 C 59.7659,243.292 59.4326,241.959 59.5,240.5C 60.5585,239.4 61.3918,238.066 62,236.5C 62.885,239.538 62.385,242.205 60.5,244.5 Z"/></g>
<g><path style="opacity:1" fill="#fe3332" d="M 359.5,356.5 C 362.118,350.066 364.785,343.566 367.5,337C 365.028,338.443 362.695,340.443 360.5,343C 359.127,343.875 357.627,344.375 356,344.5C 352.154,343.159 348.654,341.159 345.5,338.5C 335.518,347.307 324.184,353.807 311.5,358C 308.167,358.667 304.833,358.667 301.5,358C 298.661,356.08 295.661,354.413 292.5,353C 290.683,351.2 289.516,349.034 289,346.5C 288.333,341.167 288.333,335.833 289,330.5C 291.618,324.605 294.784,318.938 298.5,313.5C 303.099,307.562 308.099,301.895 313.5,296.5C 317.16,292.514 321.493,289.848 326.5,288.5C 327.594,287.418 328.927,286.752 330.5,286.5C 335.689,288.769 341.023,290.436 346.5,291.5C 346.842,292.338 347.508,292.672 348.5,292.5C 355.279,302.841 356.279,313.841 351.5,325.5C 353.167,326.666 354.834,326.666 356.5,325.5C 361.428,324.122 366.428,322.955 371.5,322C 375.608,314.608 378.774,306.775 381,298.5C 382,297.5 383,296.5 384,295.5C 385.593,291.297 386.926,286.964 388,282.5C 394.254,269.494 401.421,256.994 409.5,245C 415.956,245.812 422.289,247.479 428.5,250C 429.059,250.725 429.392,251.558 429.5,252.5C 428.48,255.839 428.313,259.173 429,262.5C 427.281,264.557 425.281,266.224 423,267.5C 421.416,267.012 420.249,266.012 419.5,264.5C 416.251,267.992 413.751,271.992 412,276.5C 409.744,279.159 407.577,281.826 405.5,284.5C 402.188,293.535 397.854,302.202 392.5,310.5C 393.365,311.583 394.365,311.749 395.5,311C 399.357,307.582 403.357,304.415 407.5,301.5C 410.499,302.842 411.833,305.176 411.5,308.5C 409.023,315.837 405.023,322.337 399.5,328C 396.31,328.332 394.31,326.832 393.5,323.5C 389.371,325.317 385.871,327.984 383,331.5C 380.758,336.306 378.591,341.139 376.5,346C 377.33,347.465 377.496,348.965 377,350.5C 374.957,352.208 373.29,354.208 372,356.5C 370.333,362.833 368.667,369.167 367,375.5C 364.443,378.392 362.276,381.559 360.5,385C 356.798,386.393 354.798,385.226 354.5,381.5C 355.761,373.062 357.428,364.729 359.5,356.5 Z"/></g>
<g><path style="opacity:1" fill="#998f7b" d="M 197.5,249.5 C 198.921,252.508 198.754,255.508 197,258.5C 196.366,255.445 196.532,252.445 197.5,249.5 Z"/></g>
<g><path style="opacity:1" fill="#837d69" d="M 72.5,252.5 C 74.7834,252.608 76.7834,253.441 78.5,255C 77.4281,256.284 76.0948,256.617 74.5,256C 74.6532,258.61 75.9865,260.943 78.5,263C 77.2161,263.684 76.0495,263.517 75,262.5C 74.4375,264.866 74.6042,267.199 75.5,269.5C 75.2811,270.938 74.7811,272.271 74,273.5C 72.5236,268.924 72.1902,264.257 73,259.5C 73.8893,260.888 74.3893,260.722 74.5,259C 72.9972,257.079 72.3305,254.912 72.5,252.5 Z"/></g>
<g><path style="opacity:1" fill="#fe3432" d="M 445.5,262.5 C 448.813,263.045 452.146,263.545 455.5,264C 457.846,265.013 459.513,266.679 460.5,269C 457.069,277.126 453.736,285.293 450.5,293.5C 451.833,293.833 453.167,294.167 454.5,294.5C 459.582,293.884 464.582,292.884 469.5,291.5C 471.623,291.22 472.956,292.053 473.5,294C 472.421,296.155 471.087,298.155 469.5,300C 461.126,305.103 452.292,309.27 443,312.5C 435.02,327.451 429.02,343.118 425,359.5C 423.402,362.925 421.402,363.258 419,360.5C 418.333,351.833 418.333,343.167 419,334.5C 420.897,326.476 423.397,318.643 426.5,311C 423.115,307.283 420.115,303.283 417.5,299C 417.759,297.739 418.426,296.739 419.5,296C 424.086,295.803 428.586,295.303 433,294.5C 436.936,283.646 441.103,272.98 445.5,262.5 Z"/></g>
<g><path style="opacity:1" fill="#fc3332" d="M 282.5,265.5 C 290.131,270.307 291.464,276.474 286.5,284C 283.408,284.736 280.408,284.569 277.5,283.5C 268.029,280.573 261.362,283.573 257.5,292.5C 252.356,300.55 254.022,307.05 262.5,312C 271.695,315.825 279.195,321.659 285,329.5C 288.431,338.721 286.597,346.554 279.5,353C 261.48,358.56 244.48,356.394 228.5,346.5C 229.567,338.128 234.234,334.961 242.5,337C 249.49,339.106 256.49,340.44 263.5,341C 264.743,339.846 265.743,338.512 266.5,337C 259.784,331.283 252.784,325.95 245.5,321C 242.933,318.604 240.6,316.104 238.5,313.5C 234.056,302.147 235.389,291.48 242.5,281.5C 246.196,277.142 250.53,273.475 255.5,270.5C 263.99,265.919 272.99,264.252 282.5,265.5 Z"/></g>
<g><path style="opacity:1" fill="#bfae9b" d="M 148.5,185.5 C 145.1,203.012 142.267,220.678 140,238.5C 139.667,244.833 139.333,251.167 139,257.5C 135.827,265.866 133.993,274.533 133.5,283.5C 133.497,286.602 133.997,286.935 135,284.5C 136.188,285.563 136.688,286.897 136.5,288.5C 140.138,287.737 141.638,289.07 141,292.5C 139.39,296.443 136.723,299.443 133,301.5C 132.997,298.968 133.497,296.468 134.5,294C 134.491,292.596 133.991,291.43 133,290.5C 130.298,295.452 129.132,300.785 129.5,306.5C 128.852,304.502 128.019,302.502 127,300.5C 126.598,301.872 126.098,303.205 125.5,304.5C 119.668,310.834 112.668,315.334 104.5,318C 98.1667,318.667 91.8333,318.667 85.5,318C 78.6856,315.546 71.6856,313.88 64.5,313C 62.9336,312.392 61.6002,311.558 60.5,310.5C 65.0168,310.98 67.3502,308.98 67.5,304.5C 66.325,304.719 65.325,304.386 64.5,303.5C 68.122,302.341 71.7887,302.175 75.5,303C 80.8008,307.956 87.1341,309.789 94.5,308.5C 101.754,309.427 108.421,307.927 114.5,304C 121.913,294.867 125.58,284.367 125.5,272.5C 127.259,273.871 129.259,274.871 131.5,275.5C 132.853,272.242 134.02,268.908 135,265.5C 137.256,238.294 141.756,211.628 148.5,185.5 Z"/></g>
<g><path style="opacity:1" fill="#bdac99" d="M 211.5,306.5 C 210.975,313.788 206.975,317.454 199.5,317.5C 192.627,317.166 188.127,313.833 186,307.5C 185.657,299.804 183.324,292.804 179,286.5C 177.698,285.915 176.531,285.249 175.5,284.5C 173.856,284.714 172.356,284.38 171,283.5C 170.5,290.492 170.334,297.492 170.5,304.5C 169.505,293.012 169.172,281.345 169.5,269.5C 179.495,268.656 184.661,273.323 185,283.5C 190.36,288.638 190.86,294.305 186.5,300.5C 186.875,302.459 187.541,304.293 188.5,306C 196.229,307.121 203.896,307.288 211.5,306.5 Z"/></g>
<g><path style="opacity:1" fill="#a89a88" d="M 73.5,279.5 C 74.6266,280.122 75.6266,280.955 76.5,282C 75.3333,282.5 74.5,283.333 74,284.5C 73.5065,282.866 73.3398,281.199 73.5,279.5 Z"/></g>
<g><path style="opacity:1" fill="#39422c" d="M 175.5,284.5 C 174.024,282.77 174.358,281.437 176.5,280.5C 178.111,281.32 178.778,282.654 178.5,284.5C 177.5,284.5 176.5,284.5 175.5,284.5 Z"/></g>
<g><path style="opacity:1" fill="#baaa97" d="M 162.5,307.5 C 161.833,307.5 161.167,307.5 160.5,307.5C 159.221,306.032 157.554,305.365 155.5,305.5C 155.649,304.448 155.483,303.448 155,302.5C 154.505,304.473 154.338,306.473 154.5,308.5C 153.127,308.657 151.793,308.49 150.5,308C 151.025,307.308 151.692,306.808 152.5,306.5C 153.828,299.565 154.661,292.565 155,285.5C 155.414,285.043 155.914,284.709 156.5,284.5C 155.234,275.11 159.234,270.443 168.5,270.5C 168.249,282.537 168.249,294.537 168.5,306.5C 164.241,306.898 162.408,304.898 163,300.5C 162.503,302.81 162.337,305.143 162.5,307.5 Z"/></g>
<g><path style="opacity:1" fill="#35402a" d="M 157.5,285.5 C 158.652,290.985 158.818,296.651 158,302.5C 157.015,300.634 156.515,298.634 156.5,296.5C 157.116,292.855 157.45,289.188 157.5,285.5 Z"/></g>
<g><path style="opacity:1" fill="#716d59" d="M 347.5,276.5 C 348.488,281.64 348.821,286.974 348.5,292.5C 347.508,292.672 346.842,292.338 346.5,291.5C 347.487,286.695 347.821,281.695 347.5,276.5 Z"/></g>
<g><path style="opacity:1" fill="#28331e" d="M 277.5,283.5 C 276.005,291.409 275.171,299.409 275,307.5C 269.643,311.787 264.643,311.453 260,306.5C 258.208,302 257.375,297.333 257.5,292.5C 261.362,283.573 268.029,280.573 277.5,283.5 Z"/></g>
<g><path style="opacity:1" fill="#b3a491" d="M 61.5,274.5 C 62.2679,275.263 62.7679,276.263 63,277.5C 63.3333,277.167 63.6667,276.833 64,276.5C 65.3167,281.1 66.3167,285.766 67,290.5C 68.5403,294.419 70.7069,297.919 73.5,301C 67.9271,302.552 64.5938,300.552 63.5,295C 63.4785,292.394 63.8118,289.727 64.5,287C 63.3242,282.884 62.3242,278.717 61.5,274.5 Z"/></g>
<g><path style="opacity:1" fill="#b8a895" d="M 147.5,284.5 C 148.873,284.343 150.207,284.51 151.5,285C 147.749,285.582 146.082,287.749 146.5,291.5C 151.675,290.507 153.509,292.507 152,297.5C 151.691,296.234 151.191,295.067 150.5,294C 149.668,293.312 149.002,293.479 148.5,294.5C 151.35,299.833 149.683,302 143.5,301C 143.043,300.586 142.709,300.086 142.5,299.5C 143.254,296.223 143.754,292.89 144,289.5C 144.997,287.677 146.164,286.01 147.5,284.5 Z"/></g>
<g><path style="opacity:1" fill="#6e6d58" d="M 160.5,307.5 C 161.167,307.5 161.833,307.5 162.5,307.5C 162.389,308.117 162.056,308.617 161.5,309C 166.489,309.499 171.489,309.666 176.5,309.5C 166.765,310.178 156.932,310.845 147,311.5C 144.974,311.085 143.474,310.085 142.5,308.5C 145.583,309.125 148.749,309.458 152,309.5C 155.252,309.481 158.085,308.814 160.5,307.5 Z"/></g>
<g><path style="opacity:1" fill="#c5b09d" d="M 331.5,305.5 C 332.765,306.514 333.431,308.014 333.5,310C 332.798,318.439 330.298,326.273 326,333.5C 320.757,335.872 315.59,338.372 310.5,341C 308.19,341.497 305.857,341.663 303.5,341.5C 303.502,337.489 304.668,333.822 307,330.5C 314.699,321.635 322.866,313.302 331.5,305.5 Z"/></g>
<g><path style="opacity:1" fill="#73715c" d="M 188.5,327.5 C 191.572,327.183 194.572,327.516 197.5,328.5C 193.623,329.197 189.79,329.864 186,330.5C 185.833,330.167 185.667,329.833 185.5,329.5C 186.602,328.824 187.602,328.158 188.5,327.5 Z"/></g>
<g><path style="opacity:1" fill="#c1ad9a" d="M 298.5,313.5 C 294.784,318.938 291.618,324.605 289,330.5C 288.333,335.833 288.333,341.167 289,346.5C 289.516,349.034 290.683,351.2 292.5,353C 295.661,354.413 298.661,356.08 301.5,358C 304.833,358.667 308.167,358.667 311.5,358C 324.184,353.807 335.518,347.307 345.5,338.5C 348.654,341.159 352.154,343.159 356,344.5C 357.627,344.375 359.127,343.875 360.5,343C 362.695,340.443 365.028,338.443 367.5,337C 364.785,343.566 362.118,350.066 359.5,356.5C 359.822,354.278 359.155,352.444 357.5,351C 351.679,348.244 345.679,347.911 339.5,350C 330.838,356.832 321.172,361.832 310.5,365C 306.739,365.738 303.072,365.405 299.5,364C 295.323,361.152 291.156,358.318 287,355.5C 268.466,364.908 249.966,364.741 231.5,355C 229.804,352.413 228.804,349.579 228.5,346.5C 244.48,356.394 261.48,358.56 279.5,353C 286.597,346.554 288.431,338.721 285,329.5C 279.195,321.659 271.695,315.825 262.5,312C 254.022,307.05 252.356,300.55 257.5,292.5C 257.375,297.333 258.208,302 260,306.5C 264.643,311.453 269.643,311.787 275,307.5C 275.171,299.409 276.005,291.409 277.5,283.5C 280.408,284.569 283.408,284.736 286.5,284C 291.464,276.474 290.131,270.307 282.5,265.5C 283.443,248.284 285.777,231.284 289.5,214.5C 290.822,214.33 291.989,214.663 293,215.5C 293.526,246.177 293.526,276.843 293,307.5C 293.706,310.607 295.539,312.607 298.5,313.5 Z"/></g>
</svg>
