<?xml version="1.0" encoding="UTF-8"?>
<!DOCTYPE svg PUBLIC "-//W3C//DTD SVG 1.1//EN" "http://www.w3.org/Graphics/SVG/1.1/DTD/svg11.dtd">
<svg xmlns="http://www.w3.org/2000/svg" version="1.1" width="500px" height="500px" style="shape-rendering:geometricPrecision; text-rendering:geometricPrecision; image-rendering:optimizeQuality; fill-rule:evenodd; clip-rule:evenodd" xmlns:xlink="http://www.w3.org/1999/xlink">
<g><path style="opacity:1" fill="#cebba7" d="M -0.5,-0.5 C 166.167,-0.5 332.833,-0.5 499.5,-0.5C 499.5,166.167 499.5,332.833 499.5,499.5C 332.833,499.5 166.167,499.5 -0.5,499.5C -0.5,332.833 -0.5,166.167 -0.5,-0.5 Z"/></g>
<g><path style="opacity:1" fill="#29351f" d="M 246.5,105.5 C 249.97,104.875 252.804,105.875 255,108.5C 255.5,117.494 255.666,126.494 255.5,135.5C 308.332,141.17 343.165,169.17 360,219.5C 361.822,227.408 362.988,235.408 363.5,243.5C 372.506,243.334 381.506,243.5 390.5,244C 393.349,246.559 394.183,249.726 393,253.5C 392.25,254.126 391.416,254.626 390.5,255C 381.506,255.5 372.506,255.666 363.5,255.5C 358.116,310.058 329.116,345.224 276.5,361C 269.564,362.409 262.564,363.242 255.5,363.5C 255.666,372.506 255.5,381.506 255,390.5C 251.433,395.796 247.766,395.796 244,390.5C 243.5,381.506 243.334,372.506 243.5,363.5C 200.88,359.946 169.047,339.613 148,302.5C 140.86,287.604 136.693,271.937 135.5,255.5C 126.494,255.666 117.494,255.5 108.5,255C 104.253,250.837 104.586,247.171 109.5,244C 118.16,243.5 126.827,243.334 135.5,243.5C 138.239,207.514 153.906,178.681 182.5,157C 200.669,143.776 221.003,136.61 243.5,135.5C 243.334,126.827 243.5,118.16 244,109.5C 244.662,108.016 245.496,106.683 246.5,105.5 Z"/></g>
<g><path style="opacity:1" fill="#cdbaa6" d="M 235.5,147.5 C 238.167,147.5 240.833,147.5 243.5,147.5C 243.5,161.5 243.5,175.5 243.5,189.5C 217.203,192.953 199.703,207.287 191,232.5C 190.064,236.114 189.564,239.78 189.5,243.5C 175.5,243.5 161.5,243.5 147.5,243.5C 154.236,190.765 183.569,158.765 235.5,147.5 Z"/></g>
<g><path style="opacity:1" fill="#a69b87" d="M 260.5,148.5 C 259.167,148.5 257.833,148.5 256.5,148.5C 256.185,162.246 256.519,175.912 257.5,189.5C 255.518,175.873 254.851,161.873 255.5,147.5C 257.415,147.216 259.081,147.549 260.5,148.5 Z"/></g>
<g><path style="opacity:1" fill="#cdbba7" d="M 260.5,148.5 C 294.95,152.789 321.117,169.789 339,199.5C 346.592,213.203 350.759,227.87 351.5,243.5C 337.833,243.5 324.167,243.5 310.5,243.5C 305.575,212.909 287.909,194.909 257.5,189.5C 256.519,175.912 256.185,162.246 256.5,148.5C 257.833,148.5 259.167,148.5 260.5,148.5 Z"/></g>
<g><path style="opacity:1" fill="#cdbba7" d="M 237.5,201.5 C 239.5,201.5 241.5,201.5 243.5,201.5C 243.5,215.5 243.5,229.5 243.5,243.5C 229.5,243.5 215.5,243.5 201.5,243.5C 203.013,229.645 209.346,218.478 220.5,210C 225.98,206.593 231.647,203.76 237.5,201.5 Z"/></g>
<g><path style="opacity:1" fill="#ccbaa5" d="M 297.5,240.5 C 297.5,241.5 297.5,242.5 297.5,243.5C 283.5,243.5 269.5,243.5 255.5,243.5C 255.5,229.5 255.5,215.5 255.5,201.5C 278.501,204.835 292.501,217.835 297.5,240.5 Z"/></g>
<g><path style="opacity:1" fill="#525741" d="M 297.5,240.5 C 298.434,241.568 298.768,242.901 298.5,244.5C 283.99,244.829 269.657,244.496 255.5,243.5C 269.5,243.5 283.5,243.5 297.5,243.5C 297.5,242.5 297.5,241.5 297.5,240.5 Z"/></g>
<g><path style="opacity:1" fill="#a39883" d="M 189.5,257.5 C 175.912,256.519 162.246,256.185 148.5,256.5C 148.5,257.833 148.5,259.167 148.5,260.5C 147.549,259.081 147.216,257.415 147.5,255.5C 161.873,254.851 175.873,255.518 189.5,257.5 Z"/></g>
<g><path style="opacity:1" fill="#cdbba7" d="M 189.5,257.5 C 194.836,287.502 212.502,305.169 242.5,310.5C 243.499,324.15 243.833,337.817 243.5,351.5C 196.821,346.733 165.987,322.066 151,277.5C 149.653,271.905 148.82,266.238 148.5,260.5C 148.5,259.167 148.5,257.833 148.5,256.5C 162.246,256.185 175.912,256.519 189.5,257.5 Z"/></g>
<g><path style="opacity:1" fill="#ccbaa6" d="M 243.5,255.5 C 243.5,269.5 243.5,283.5 243.5,297.5C 242.167,297.5 240.833,297.5 239.5,297.5C 217.409,292.073 204.742,278.073 201.5,255.5C 215.5,255.5 229.5,255.5 243.5,255.5 Z"/></g>
<g><path style="opacity:1" fill="#4a503a" d="M 243.5,255.5 C 244.496,269.657 244.829,283.99 244.5,298.5C 242.585,298.784 240.919,298.451 239.5,297.5C 240.833,297.5 242.167,297.5 243.5,297.5C 243.5,283.5 243.5,269.5 243.5,255.5 Z"/></g>
<g><path style="opacity:1" fill="#a59a86" d="M 297.5,258.5 C 284.208,256.518 270.541,255.851 256.5,256.5C 256.171,270.344 256.504,284.01 257.5,297.5C 257.44,298.043 257.107,298.376 256.5,298.5C 255.501,284.182 255.167,269.849 255.5,255.5C 269.833,255.5 284.167,255.5 298.5,255.5C 298.737,256.791 298.404,257.791 297.5,258.5 Z"/></g>
<g><path style="opacity:1" fill="#cdbba7" d="M 297.5,258.5 C 292.697,280.303 279.364,293.303 257.5,297.5C 256.504,284.01 256.171,270.344 256.5,256.5C 270.541,255.851 284.208,256.518 297.5,258.5 Z"/></g>
<g><path style="opacity:1" fill="#cdbaa6" d="M 310.5,255.5 C 324.167,255.5 337.833,255.5 351.5,255.5C 346.722,302.214 322.055,333.047 277.5,348C 270.379,350.524 263.046,351.691 255.5,351.5C 255.5,337.833 255.5,324.167 255.5,310.5C 286.837,305.163 305.17,286.83 310.5,255.5 Z"/></g>
</svg>
